<svg xmlns="http://www.w3.org/2000/svg" xmlns:xlink="http://www.w3.org/1999/xlink" width="1920" zoomAndPan="magnify" viewBox="0 0 1440 809.999993" height="1080" preserveAspectRatio="xMidYMid meet" version="1.0"><defs><clipPath id="id1"><path d="M 1031.082031 30 L 1423 30 L 1423 441.71875 L 1031.082031 441.71875 Z M 1031.082031 30 " clip-rule="nonzero"/></clipPath><clipPath id="id2"><path d="M 1209.6875 156.53125 C 1219.554688 149.4375 1228.261719 139.644531 1237.335938 129.445312 C 1247.820312 117.652344 1258.660156 105.460938 1272.023438 96.890625 C 1289.625 85.59375 1314.101562 76.554688 1335.691406 68.578125 C 1351 62.925781 1364.222656 58.042969 1371.558594 53.605469 C 1388.722656 43.21875 1396.441406 31.863281 1396.515625 31.75 C 1397.515625 30.253906 1399.542969 29.84375 1401.039062 30.847656 C 1402.539062 31.847656 1402.945312 33.867188 1401.949219 35.367188 C 1401.609375 35.878906 1393.445312 47.996094 1374.9375 59.191406 C 1367.066406 63.953125 1353.578125 68.933594 1337.953125 74.703125 C 1316.671875 82.5625 1292.554688 91.476562 1275.546875 102.386719 C 1262.945312 110.472656 1252.410156 122.320312 1242.214844 133.78125 C 1229.691406 147.867188 1216.738281 162.429688 1200.117188 169.464844 C 1198.753906 170.039062 1197.171875 169.628906 1196.269531 168.460938 C 1195.359375 167.292969 1195.351562 165.660156 1196.25 164.480469 C 1206.570312 150.90625 1212.546875 139.136719 1214.351562 128.769531 C 1205.910156 137.429688 1189.5 153.386719 1168.925781 169.054688 C 1132.710938 196.636719 1096.042969 226.710938 1073.207031 259.714844 C 1045.667969 299.503906 1044.402344 334.734375 1069.328125 367.417969 C 1111.429688 422.597656 1187.683594 391.210938 1222.128906 366.902344 C 1237.152344 356.304688 1253.402344 353.371094 1261.679688 352.566406 C 1259.066406 349.847656 1254.699219 348.234375 1248.476562 347.660156 C 1245.53125 347.390625 1243.050781 345.507812 1242.003906 342.75 C 1240.992188 340.085938 1241.574219 337.140625 1243.515625 335.070312 C 1254.546875 323.328125 1271.4375 316.464844 1287.769531 309.828125 C 1299.101562 305.222656 1309.808594 300.875 1318.378906 295.113281 C 1332.863281 285.375 1345.167969 266.382812 1352.285156 253.667969 C 1346.339844 257.316406 1339.96875 259.964844 1333.234375 261.59375 C 1329.070312 262.605469 1324.988281 260.839844 1322.824219 257.105469 C 1320.667969 253.378906 1321.1875 248.792969 1324.125 245.691406 C 1330.417969 239.042969 1338.226562 233.503906 1345.773438 228.144531 C 1352.847656 223.128906 1359.527344 218.386719 1364.992188 212.863281 C 1373.035156 204.722656 1378.257812 195.632812 1382.867188 187.613281 C 1387.074219 180.289062 1390.710938 173.960938 1395.6875 169.398438 C 1406.277344 159.683594 1418.273438 157.601562 1418.777344 157.519531 C 1420.558594 157.222656 1422.238281 158.425781 1422.53125 160.207031 C 1422.828125 161.980469 1421.628906 163.660156 1419.855469 163.960938 C 1419.75 163.976562 1409.207031 165.859375 1400.101562 174.210938 C 1395.871094 178.09375 1392.46875 184.011719 1388.53125 190.871094 C 1383.726562 199.234375 1378.28125 208.714844 1369.636719 217.457031 C 1363.773438 223.386719 1356.546875 228.519531 1349.554688 233.476562 C 1342.261719 238.652344 1334.722656 244.003906 1328.867188 250.1875 C 1327.71875 251.398438 1327.914062 252.867188 1328.476562 253.839844 C 1328.738281 254.292969 1329.753906 255.722656 1331.699219 255.257812 C 1342.15625 252.726562 1351.28125 247.695312 1359.597656 239.871094 C 1360.730469 238.804688 1362.457031 238.6875 1363.726562 239.589844 C 1364.996094 240.492188 1365.449219 242.167969 1364.816406 243.585938 C 1364.078125 245.234375 1346.457031 284.113281 1322.023438 300.542969 C 1312.894531 306.683594 1301.375 311.363281 1290.230469 315.894531 C 1274.546875 322.265625 1258.332031 328.855469 1248.277344 339.558594 C 1248.191406 339.652344 1247.917969 339.941406 1248.113281 340.449219 C 1248.171875 340.601562 1248.414062 341.109375 1249.074219 341.171875 C 1260.609375 342.230469 1267.734375 346.726562 1270.253906 354.542969 C 1270.578125 355.539062 1270.398438 356.632812 1269.777344 357.476562 C 1269.160156 358.324219 1268.140625 358.945312 1267.121094 358.808594 C 1266.941406 358.878906 1244.996094 358.777344 1225.898438 372.253906 C 1198.683594 391.460938 1165.148438 404.644531 1133.886719 404.644531 C 1107.210938 404.644531 1082.183594 395.042969 1064.140625 371.390625 C 1037.648438 336.644531 1038.886719 297.824219 1067.835938 256 C 1091.191406 222.246094 1128.324219 191.769531 1164.96875 163.863281 C 1194.648438 141.261719 1215.492188 118.078125 1215.703125 117.84375 C 1216.582031 116.863281 1217.96875 116.5 1219.207031 116.9375 C 1220.453125 117.371094 1221.316406 118.507812 1221.390625 119.828125 C 1222.046875 130.726562 1218.203125 142.820312 1209.6875 156.53125 Z M 1068.09375 181.539062 C 1058.007812 192.265625 1046.269531 202.285156 1033.207031 211.320312 C 1031.722656 212.34375 1031.351562 214.378906 1032.378906 215.863281 C 1033.011719 216.78125 1034.03125 217.269531 1035.066406 217.269531 C 1035.707031 217.269531 1036.355469 217.082031 1036.921875 216.6875 C 1050.359375 207.394531 1062.449219 197.078125 1072.847656 186.015625 C 1074.082031 184.703125 1074.023438 182.636719 1072.710938 181.398438 C 1071.398438 180.167969 1069.328125 180.226562 1068.09375 181.539062 Z M 1081.621094 176.042969 C 1083.664062 173.5625 1085.671875 170.992188 1087.59375 168.40625 C 1088.671875 166.957031 1088.367188 164.910156 1086.917969 163.835938 C 1085.472656 162.761719 1083.429688 163.066406 1082.351562 164.511719 C 1080.492188 167.015625 1078.550781 169.5 1076.578125 171.894531 C 1075.433594 173.285156 1075.632812 175.347656 1077.023438 176.488281 C 1077.636719 176.988281 1078.371094 177.234375 1079.097656 177.234375 C 1080.042969 177.234375 1080.976562 176.824219 1081.621094 176.042969 Z M 1071.953125 216.28125 C 1072.59375 216.941406 1073.445312 217.273438 1074.300781 217.273438 C 1075.117188 217.273438 1075.9375 216.964844 1076.570312 216.351562 C 1119.113281 175.058594 1165.257812 136.421875 1213.714844 101.519531 C 1215.179688 100.464844 1215.511719 98.421875 1214.457031 96.960938 C 1213.402344 95.496094 1211.363281 95.160156 1209.898438 96.21875 C 1161.183594 131.304688 1114.792969 170.148438 1072.023438 211.664062 C 1070.730469 212.917969 1070.699219 214.988281 1071.953125 216.28125 Z M 1259.265625 62.410156 C 1247.296875 70.199219 1235.34375 78.265625 1223.734375 86.394531 C 1222.253906 87.429688 1221.894531 89.464844 1222.929688 90.941406 C 1223.5625 91.851562 1224.578125 92.335938 1225.605469 92.335938 C 1226.253906 92.335938 1226.90625 92.144531 1227.476562 91.746094 C 1239.027344 83.660156 1250.917969 75.636719 1262.824219 67.886719 C 1264.335938 66.902344 1264.765625 64.878906 1263.78125 63.367188 C 1262.796875 61.855469 1260.777344 61.429688 1259.265625 62.410156 Z M 1258.628906 91.535156 C 1259.273438 92.242188 1260.15625 92.601562 1261.046875 92.601562 C 1261.828125 92.601562 1262.613281 92.320312 1263.238281 91.753906 C 1276.738281 79.476562 1292.300781 68.5 1309.492188 59.125 C 1311.078125 58.265625 1311.660156 56.277344 1310.796875 54.699219 C 1309.933594 53.113281 1307.949219 52.53125 1306.367188 53.394531 C 1288.71875 63.015625 1272.730469 74.296875 1258.84375 86.921875 C 1257.511719 88.132812 1257.417969 90.199219 1258.628906 91.535156 Z M 1188.550781 401.558594 C 1174.433594 415.613281 1159.972656 427.082031 1145.570312 435.648438 C 1144.019531 436.566406 1143.511719 438.574219 1144.433594 440.125 C 1145.042969 441.148438 1146.128906 441.71875 1147.242188 441.71875 C 1147.808594 441.71875 1148.382812 441.574219 1148.90625 441.261719 C 1163.769531 432.421875 1178.65625 420.621094 1193.152344 406.183594 C 1194.429688 404.910156 1194.4375 402.847656 1193.164062 401.566406 C 1191.894531 400.289062 1189.828125 400.285156 1188.550781 401.558594 Z M 1391.824219 260.847656 C 1388.683594 263.742188 1385.535156 266.628906 1382.378906 269.511719 C 1381.046875 270.726562 1380.949219 272.792969 1382.167969 274.125 C 1382.8125 274.828125 1383.695312 275.1875 1384.582031 275.1875 C 1385.363281 275.1875 1386.15625 274.90625 1386.78125 274.335938 C 1389.945312 271.445312 1393.101562 268.554688 1396.253906 265.652344 C 1397.578125 264.429688 1397.664062 262.363281 1396.441406 261.035156 C 1395.214844 259.707031 1393.152344 259.625 1391.824219 260.847656 Z M 1376.21875 279.53125 C 1375.007812 278.191406 1372.949219 278.089844 1371.605469 279.296875 C 1317.125 328.535156 1260.949219 375.394531 1204.644531 418.574219 C 1203.214844 419.671875 1202.945312 421.722656 1204.042969 423.152344 C 1204.683594 423.988281 1205.65625 424.429688 1206.632812 424.429688 C 1207.328125 424.429688 1208.027344 424.210938 1208.621094 423.753906 C 1265.066406 380.472656 1321.375 333.496094 1375.988281 284.144531 C 1377.324219 282.933594 1377.425781 280.871094 1376.21875 279.53125 Z M 1347.976562 324.796875 C 1335.78125 338.851562 1322.035156 351.71875 1307.113281 363.050781 C 1305.679688 364.140625 1305.398438 366.1875 1306.488281 367.625 C 1307.132812 368.472656 1308.105469 368.914062 1309.09375 368.914062 C 1309.777344 368.914062 1310.472656 368.699219 1311.0625 368.25 C 1326.339844 356.648438 1340.417969 343.46875 1352.90625 329.074219 C 1354.089844 327.714844 1353.941406 325.652344 1352.582031 324.46875 C 1351.222656 323.289062 1349.160156 323.433594 1347.976562 324.796875 Z M 1272.46875 259.148438 C 1278.714844 258.269531 1285.226562 258.574219 1292.09375 260.058594 C 1293.371094 260.332031 1294.359375 261.339844 1294.613281 262.625 C 1294.863281 263.902344 1294.328125 265.210938 1293.25 265.949219 C 1292.9375 266.164062 1261.671875 287.5625 1246.824219 301.140625 C 1233.71875 313.128906 1221.234375 332.355469 1218.621094 336.492188 C 1218.617188 337.773438 1218.414062 338.9375 1218.113281 339.90625 C 1215.753906 347.539062 1180.632812 377.1875 1143.726562 383.511719 C 1138.980469 384.324219 1134.359375 384.726562 1129.878906 384.730469 C 1107.890625 384.730469 1089.175781 375.019531 1075.183594 356.195312 C 1051.90625 324.863281 1062.621094 293.769531 1075.710938 273.199219 C 1095.996094 241.320312 1134.703125 215.367188 1146.628906 217.835938 C 1148.511719 218.222656 1150.96875 219.195312 1152.921875 221.523438 C 1158.132812 214.960938 1169.011719 202.550781 1181.0625 196.523438 C 1186.902344 193.597656 1194.511719 191.003906 1203.320312 187.996094 C 1218.472656 182.820312 1237.332031 176.378906 1252.878906 165.800781 C 1276.816406 149.515625 1305.074219 113.144531 1305.355469 112.773438 C 1306.167969 111.734375 1307.523438 111.269531 1308.796875 111.621094 C 1310.070312 111.96875 1311.007812 113.046875 1311.175781 114.359375 C 1311.988281 120.710938 1311.261719 127.335938 1309.015625 134.179688 C 1321.425781 122.0625 1339.121094 105.707031 1352.441406 97.128906 C 1364.304688 89.484375 1379.933594 81.058594 1390.949219 75.335938 C 1414.746094 62.976562 1414.75 62.96875 1416.753906 65.449219 C 1417.800781 66.746094 1417.695312 68.648438 1416.515625 69.828125 C 1415.570312 70.910156 1390.15625 103.171875 1378.386719 122.695312 C 1374.53125 129.085938 1370.882812 137.195312 1367.019531 145.78125 C 1359.117188 163.335938 1349.28125 185.1875 1332.390625 203.761719 C 1315.832031 221.972656 1288.621094 245.5625 1272.46875 259.148438 Z M 1209.992188 331.773438 C 1205.484375 326.523438 1205.777344 318.933594 1210.675781 314.117188 C 1214.617188 310.242188 1216.65625 305.882812 1216.726562 301.15625 C 1216.859375 292.75 1212.007812 286.011719 1207.921875 281.835938 C 1204.722656 278.578125 1203.609375 273.773438 1205 269.304688 C 1208.625 257.644531 1208.871094 248.722656 1205.632812 246.027344 C 1202.355469 243.300781 1195.085938 245.222656 1186.191406 251.1875 C 1183.050781 253.296875 1179.167969 253.875 1175.515625 252.773438 L 1158.5625 247.644531 C 1152.871094 245.921875 1149.1875 240.605469 1149.609375 234.722656 C 1150.058594 228.441406 1148.613281 224.914062 1145.3125 224.238281 C 1145.121094 224.199219 1144.902344 224.179688 1144.65625 224.179688 C 1136.761719 224.179688 1101.765625 244.414062 1081.210938 276.710938 C 1069.226562 295.546875 1059.355469 323.953125 1080.421875 352.300781 C 1095.292969 372.316406 1115.203125 380.804688 1139.601562 377.539062 C 1175.460938 372.730469 1209.757812 343.378906 1211.882812 337.945312 C 1212.097656 337.25 1212.785156 335.023438 1209.992188 331.773438 Z M 1327.554688 199.371094 C 1343.75 181.5625 1352.945312 161.128906 1361.058594 143.105469 C 1365.007812 134.335938 1368.738281 126.050781 1372.792969 119.324219 C 1380.570312 106.425781 1394.066406 88.175781 1402.996094 76.511719 C 1390.0625 83.035156 1369.742188 93.75 1355.96875 102.621094 C 1334.320312 116.570312 1299.160156 153.355469 1298.804688 153.722656 C 1297.632812 154.957031 1295.699219 155.078125 1294.375 154 C 1293.054688 152.921875 1292.785156 151.007812 1293.761719 149.605469 C 1300.003906 140.628906 1303.652344 132.066406 1304.667969 124.035156 C 1294.972656 135.765625 1274.890625 158.71875 1256.546875 171.199219 C 1240.269531 182.277344 1220.953125 188.871094 1205.421875 194.175781 C 1196.839844 197.105469 1189.425781 199.636719 1183.980469 202.363281 C 1171.089844 208.808594 1159.058594 224.128906 1155.867188 228.402344 C 1156.195312 230.3125 1156.3125 232.542969 1156.121094 235.1875 C 1155.921875 237.960938 1157.746094 240.570312 1160.453125 241.390625 L 1177.40625 246.519531 C 1179.167969 247.046875 1181.039062 246.773438 1182.554688 245.761719 C 1189.371094 241.1875 1201.984375 234.484375 1209.8125 241.007812 C 1216.917969 246.929688 1214.507812 260.71875 1211.230469 271.246094 C 1210.550781 273.417969 1211.070312 275.722656 1212.578125 277.261719 C 1217.542969 282.324219 1223.417969 290.59375 1223.257812 301.257812 C 1223.15625 307.667969 1220.390625 313.726562 1215.253906 318.773438 C 1212.835938 321.152344 1212.703125 324.910156 1214.945312 327.515625 C 1215.296875 327.925781 1215.574219 328.328125 1215.867188 328.730469 C 1220.984375 321.042969 1231.3125 306.46875 1242.410156 296.320312 C 1253.410156 286.257812 1272.527344 272.480469 1282.730469 265.300781 C 1274.179688 264.746094 1266.273438 266.449219 1258.71875 270.449219 C 1257.226562 271.234375 1255.386719 270.765625 1254.460938 269.359375 C 1253.539062 267.957031 1253.828125 266.078125 1255.136719 265.023438 C 1255.617188 264.640625 1303.304688 226.035156 1327.554688 199.371094 Z M 1103.25 339.414062 C 1107.890625 346.519531 1107.671875 354.609375 1102.738281 357.832031 C 1101.40625 358.703125 1099.890625 359.117188 1098.289062 359.117188 C 1093.96875 359.117188 1089.058594 356.09375 1085.664062 350.910156 C 1081.023438 343.800781 1081.242188 335.714844 1086.171875 332.492188 C 1091.101562 329.269531 1098.601562 332.300781 1103.25 339.414062 Z M 1097.785156 342.980469 C 1095.449219 339.414062 1092.402344 337.722656 1090.664062 337.722656 C 1090.289062 337.722656 1089.980469 337.800781 1089.746094 337.949219 C 1088.421875 338.816406 1088.300781 343 1091.125 347.332031 C 1093.964844 351.664062 1097.847656 353.214844 1099.160156 352.363281 C 1100.492188 351.496094 1100.613281 347.316406 1097.785156 342.980469 Z M 1177.054688 329.210938 C 1177.054688 339.0625 1165.644531 349.589844 1160.4375 352.882812 C 1157.023438 355.042969 1150.796875 357.753906 1144.703125 357.757812 C 1141.300781 357.757812 1137.9375 356.910156 1135.121094 354.648438 C 1127.40625 348.449219 1127 330.761719 1132.527344 322.992188 C 1137.445312 316.082031 1147.328125 309.808594 1155.964844 311.804688 C 1160.910156 312.945312 1177.054688 317.578125 1177.054688 329.210938 Z M 1170.523438 329.210938 C 1170.523438 323.414062 1160.449219 319.539062 1154.496094 318.167969 C 1153.902344 318.027344 1153.273438 317.960938 1152.621094 317.960938 C 1147.785156 317.960938 1141.546875 321.574219 1137.851562 326.773438 C 1134.210938 331.890625 1134.390625 345.675781 1139.214844 349.558594 C 1143.800781 353.246094 1152.523438 350.164062 1156.953125 347.363281 C 1161.6875 344.367188 1170.523438 335.496094 1170.523438 329.210938 Z M 1196.507812 330.285156 C 1190.886719 333.09375 1187.058594 338.066406 1185.121094 345.050781 C 1184.640625 346.792969 1185.660156 348.589844 1187.398438 349.070312 C 1187.6875 349.148438 1187.980469 349.191406 1188.273438 349.191406 C 1189.703125 349.191406 1191.019531 348.242188 1191.417969 346.800781 C 1192.855469 341.589844 1195.476562 338.101562 1199.429688 336.125 C 1201.042969 335.320312 1201.695312 333.355469 1200.886719 331.742188 C 1200.082031 330.132812 1198.125 329.472656 1196.507812 330.285156 Z M 1097.765625 321.539062 C 1095.988281 321.339844 1094.355469 322.625 1094.148438 324.414062 C 1093.945312 326.203125 1095.234375 327.820312 1097.023438 328.027344 C 1102.734375 328.679688 1107.433594 330.894531 1111.390625 334.796875 C 1112.027344 335.421875 1112.855469 335.738281 1113.679688 335.738281 C 1114.523438 335.738281 1115.367188 335.410156 1116.003906 334.761719 C 1117.273438 333.480469 1117.257812 331.414062 1115.972656 330.144531 C 1111.011719 325.25 1104.882812 322.351562 1097.765625 321.539062 Z M 1131.339844 299.402344 C 1131.484375 299.402344 1131.632812 299.394531 1131.78125 299.375 C 1133.566406 299.132812 1134.820312 297.492188 1134.582031 295.699219 C 1133.660156 288.816406 1135.296875 283.042969 1139.589844 278.046875 C 1140.765625 276.679688 1140.609375 274.617188 1139.242188 273.441406 C 1137.875 272.265625 1135.8125 272.421875 1134.640625 273.789062 C 1129.136719 280.191406 1126.941406 287.855469 1128.113281 296.574219 C 1128.332031 298.210938 1129.730469 299.402344 1131.339844 299.402344 Z M 1085.738281 287.652344 C 1086.289062 283.523438 1088.8125 279.59375 1092.660156 276.875 C 1096.269531 274.324219 1100.550781 273.242188 1104.109375 274 C 1108.957031 275.023438 1112.140625 280.714844 1113.046875 285.566406 C 1114.074219 291.070312 1112.515625 295.773438 1108.878906 298.148438 C 1106.691406 299.574219 1104.050781 300.171875 1101.367188 300.171875 C 1097.609375 300.171875 1093.773438 298.992188 1091.007812 297.246094 C 1087.171875 294.820312 1085.25 291.324219 1085.738281 287.652344 Z M 1092.210938 288.519531 C 1092.015625 289.984375 1093.742188 291.242188 1094.492188 291.71875 C 1097.8125 293.8125 1102.863281 294.257812 1105.308594 292.671875 C 1106.898438 291.636719 1107.035156 288.9375 1106.625 286.761719 C 1105.957031 283.175781 1103.921875 280.632812 1102.757812 280.386719 C 1100.972656 280.011719 1098.542969 280.707031 1096.425781 282.207031 C 1094.09375 283.855469 1092.519531 286.214844 1092.210938 288.519531 Z M 1180.207031 281.121094 C 1180.476562 287.671875 1177.796875 290.730469 1175.5 292.144531 C 1173.574219 293.332031 1171.285156 293.929688 1168.910156 293.929688 C 1166.675781 293.929688 1164.363281 293.398438 1162.203125 292.339844 C 1157.019531 289.800781 1153.664062 284.777344 1152.992188 278.550781 C 1151.902344 268.453125 1160.429688 259.085938 1160.792969 258.6875 C 1161.714844 257.691406 1163.152344 257.375 1164.402344 257.875 C 1165.660156 258.375 1166.476562 259.601562 1166.457031 260.953125 C 1166.324219 269.988281 1170.070312 270.832031 1171.484375 271.152344 C 1176.507812 272.289062 1180.015625 276.296875 1180.207031 281.121094 Z M 1173.683594 281.386719 C 1173.597656 279.265625 1171.792969 277.917969 1170.042969 277.523438 C 1166.796875 276.789062 1163.136719 274.773438 1161.234375 269.710938 C 1160.058594 272.160156 1159.179688 275.039062 1159.484375 277.851562 C 1160.070312 283.257812 1163.238281 285.574219 1165.074219 286.476562 C 1167.507812 287.664062 1170.25 287.710938 1172.078125 286.585938 C 1173.542969 285.679688 1173.757812 283.261719 1173.683594 281.386719 Z M 1173.683594 281.386719 " clip-rule="nonzero"/></clipPath><linearGradient x1="59.844002" gradientTransform="matrix(3.264959, 0, 0, 3.265266, 1031.799067, 30.29714)" y1="-0.100008" x2="59.844002" gradientUnits="userSpaceOnUse" y2="125.999986" id="id3"><stop stop-opacity="1" stop-color="rgb(93.699646%, 79.598999%, 34.498596%)" offset="0"/><stop stop-opacity="1" stop-color="rgb(93.650818%, 79.438782%, 34.651184%)" offset="0.0078125"/><stop stop-opacity="1" stop-color="rgb(93.548584%, 79.101562%, 34.97467%)" offset="0.015625"/><stop stop-opacity="1" stop-color="rgb(93.441772%, 78.746033%, 35.314941%)" offset="0.0234375"/><stop stop-opacity="1" stop-color="rgb(93.334961%, 78.388977%, 35.653687%)" offset="0.03125"/><stop stop-opacity="1" stop-color="rgb(93.228149%, 78.033447%, 35.993958%)" offset="0.0390625"/><stop stop-opacity="1" stop-color="rgb(93.121338%, 77.677917%, 36.334229%)" offset="0.046875"/><stop stop-opacity="1" stop-color="rgb(93.013%, 77.322388%, 36.6745%)" offset="0.0546875"/><stop stop-opacity="1" stop-color="rgb(92.906189%, 76.966858%, 37.014771%)" offset="0.0625"/><stop stop-opacity="1" stop-color="rgb(92.799377%, 76.611328%, 37.355042%)" offset="0.0703125"/><stop stop-opacity="1" stop-color="rgb(92.692566%, 76.255798%, 37.695312%)" offset="0.078125"/><stop stop-opacity="1" stop-color="rgb(92.585754%, 75.898743%, 38.035583%)" offset="0.0859375"/><stop stop-opacity="1" stop-color="rgb(92.477417%, 75.543213%, 38.375854%)" offset="0.09375"/><stop stop-opacity="1" stop-color="rgb(92.370605%, 75.187683%, 38.716125%)" offset="0.101562"/><stop stop-opacity="1" stop-color="rgb(92.263794%, 74.832153%, 39.054871%)" offset="0.109375"/><stop stop-opacity="1" stop-color="rgb(92.156982%, 74.476624%, 39.395142%)" offset="0.117188"/><stop stop-opacity="1" stop-color="rgb(92.050171%, 74.121094%, 39.735413%)" offset="0.125"/><stop stop-opacity="1" stop-color="rgb(91.941833%, 73.765564%, 40.075684%)" offset="0.132812"/><stop stop-opacity="1" stop-color="rgb(91.835022%, 73.408508%, 40.415955%)" offset="0.140625"/><stop stop-opacity="1" stop-color="rgb(91.72821%, 73.052979%, 40.756226%)" offset="0.148438"/><stop stop-opacity="1" stop-color="rgb(91.621399%, 72.697449%, 41.096497%)" offset="0.15625"/><stop stop-opacity="1" stop-color="rgb(91.514587%, 72.341919%, 41.436768%)" offset="0.164062"/><stop stop-opacity="1" stop-color="rgb(91.40625%, 71.986389%, 41.777039%)" offset="0.171875"/><stop stop-opacity="1" stop-color="rgb(91.299438%, 71.630859%, 42.11731%)" offset="0.179688"/><stop stop-opacity="1" stop-color="rgb(91.192627%, 71.273804%, 42.456055%)" offset="0.1875"/><stop stop-opacity="1" stop-color="rgb(91.085815%, 70.918274%, 42.796326%)" offset="0.195312"/><stop stop-opacity="1" stop-color="rgb(90.979004%, 70.562744%, 43.136597%)" offset="0.203125"/><stop stop-opacity="1" stop-color="rgb(90.870667%, 70.207214%, 43.476868%)" offset="0.210938"/><stop stop-opacity="1" stop-color="rgb(90.763855%, 69.851685%, 43.817139%)" offset="0.21875"/><stop stop-opacity="1" stop-color="rgb(90.657043%, 69.496155%, 44.15741%)" offset="0.226562"/><stop stop-opacity="1" stop-color="rgb(90.550232%, 69.140625%, 44.497681%)" offset="0.234375"/><stop stop-opacity="1" stop-color="rgb(90.44342%, 68.783569%, 44.837952%)" offset="0.242188"/><stop stop-opacity="1" stop-color="rgb(90.335083%, 68.42804%, 45.178223%)" offset="0.25"/><stop stop-opacity="1" stop-color="rgb(90.228271%, 68.07251%, 45.516968%)" offset="0.257812"/><stop stop-opacity="1" stop-color="rgb(90.12146%, 67.71698%, 45.857239%)" offset="0.265625"/><stop stop-opacity="1" stop-color="rgb(90.014648%, 67.36145%, 46.19751%)" offset="0.273437"/><stop stop-opacity="1" stop-color="rgb(89.907837%, 67.00592%, 46.537781%)" offset="0.28125"/><stop stop-opacity="1" stop-color="rgb(89.7995%, 66.650391%, 46.878052%)" offset="0.289062"/><stop stop-opacity="1" stop-color="rgb(89.692688%, 66.293335%, 47.218323%)" offset="0.296875"/><stop stop-opacity="1" stop-color="rgb(89.585876%, 65.937805%, 47.558594%)" offset="0.304688"/><stop stop-opacity="1" stop-color="rgb(89.479065%, 65.582275%, 47.898865%)" offset="0.3125"/><stop stop-opacity="1" stop-color="rgb(89.372253%, 65.226746%, 48.239136%)" offset="0.320312"/><stop stop-opacity="1" stop-color="rgb(89.263916%, 64.871216%, 48.579407%)" offset="0.328125"/><stop stop-opacity="1" stop-color="rgb(89.157104%, 64.515686%, 48.918152%)" offset="0.335937"/><stop stop-opacity="1" stop-color="rgb(89.050293%, 64.160156%, 49.258423%)" offset="0.34375"/><stop stop-opacity="1" stop-color="rgb(88.943481%, 63.803101%, 49.598694%)" offset="0.351562"/><stop stop-opacity="1" stop-color="rgb(88.83667%, 63.447571%, 49.938965%)" offset="0.359375"/><stop stop-opacity="1" stop-color="rgb(88.728333%, 63.092041%, 50.279236%)" offset="0.367187"/><stop stop-opacity="1" stop-color="rgb(88.621521%, 62.736511%, 50.619507%)" offset="0.375"/><stop stop-opacity="1" stop-color="rgb(88.514709%, 62.380981%, 50.959778%)" offset="0.382812"/><stop stop-opacity="1" stop-color="rgb(88.407898%, 62.025452%, 51.300049%)" offset="0.390625"/><stop stop-opacity="1" stop-color="rgb(88.301086%, 61.669922%, 51.64032%)" offset="0.398437"/><stop stop-opacity="1" stop-color="rgb(88.192749%, 61.312866%, 51.980591%)" offset="0.40625"/><stop stop-opacity="1" stop-color="rgb(88.085938%, 60.957336%, 52.319336%)" offset="0.414062"/><stop stop-opacity="1" stop-color="rgb(87.979126%, 60.601807%, 52.659607%)" offset="0.421875"/><stop stop-opacity="1" stop-color="rgb(87.872314%, 60.246277%, 52.999878%)" offset="0.429687"/><stop stop-opacity="1" stop-color="rgb(87.765503%, 59.890747%, 53.340149%)" offset="0.4375"/><stop stop-opacity="1" stop-color="rgb(87.657166%, 59.535217%, 53.68042%)" offset="0.445312"/><stop stop-opacity="1" stop-color="rgb(87.550354%, 59.179688%, 54.020691%)" offset="0.453125"/><stop stop-opacity="1" stop-color="rgb(87.443542%, 58.822632%, 54.360962%)" offset="0.460938"/><stop stop-opacity="1" stop-color="rgb(87.336731%, 58.467102%, 54.701233%)" offset="0.46875"/><stop stop-opacity="1" stop-color="rgb(87.229919%, 58.111572%, 55.041504%)" offset="0.476562"/><stop stop-opacity="1" stop-color="rgb(87.121582%, 57.756042%, 55.380249%)" offset="0.484375"/><stop stop-opacity="1" stop-color="rgb(87.014771%, 57.400513%, 55.72052%)" offset="0.492187"/><stop stop-opacity="1" stop-color="rgb(86.907959%, 57.044983%, 56.060791%)" offset="0.5"/><stop stop-opacity="1" stop-color="rgb(86.801147%, 56.689453%, 56.401062%)" offset="0.507812"/><stop stop-opacity="1" stop-color="rgb(86.694336%, 56.332397%, 56.741333%)" offset="0.515625"/><stop stop-opacity="1" stop-color="rgb(86.585999%, 55.976868%, 57.081604%)" offset="0.523438"/><stop stop-opacity="1" stop-color="rgb(86.479187%, 55.621338%, 57.421875%)" offset="0.53125"/><stop stop-opacity="1" stop-color="rgb(86.372375%, 55.265808%, 57.762146%)" offset="0.539062"/><stop stop-opacity="1" stop-color="rgb(86.265564%, 54.910278%, 58.102417%)" offset="0.546875"/><stop stop-opacity="1" stop-color="rgb(86.158752%, 54.554749%, 58.442688%)" offset="0.554688"/><stop stop-opacity="1" stop-color="rgb(86.050415%, 54.199219%, 58.781433%)" offset="0.5625"/><stop stop-opacity="1" stop-color="rgb(85.943604%, 53.842163%, 59.121704%)" offset="0.570312"/><stop stop-opacity="1" stop-color="rgb(85.836792%, 53.486633%, 59.461975%)" offset="0.578125"/><stop stop-opacity="1" stop-color="rgb(85.72998%, 53.131104%, 59.802246%)" offset="0.585938"/><stop stop-opacity="1" stop-color="rgb(85.623169%, 52.775574%, 60.142517%)" offset="0.59375"/><stop stop-opacity="1" stop-color="rgb(85.514832%, 52.420044%, 60.482788%)" offset="0.601562"/><stop stop-opacity="1" stop-color="rgb(85.40802%, 52.064514%, 60.823059%)" offset="0.609375"/><stop stop-opacity="1" stop-color="rgb(85.301208%, 51.708984%, 61.16333%)" offset="0.617188"/><stop stop-opacity="1" stop-color="rgb(85.194397%, 51.351929%, 61.503601%)" offset="0.625"/><stop stop-opacity="1" stop-color="rgb(85.087585%, 50.996399%, 61.843872%)" offset="0.632812"/><stop stop-opacity="1" stop-color="rgb(84.979248%, 50.640869%, 62.182617%)" offset="0.640625"/><stop stop-opacity="1" stop-color="rgb(84.872437%, 50.285339%, 62.522888%)" offset="0.648437"/><stop stop-opacity="1" stop-color="rgb(84.765625%, 49.92981%, 62.863159%)" offset="0.65625"/><stop stop-opacity="1" stop-color="rgb(84.658813%, 49.57428%, 63.20343%)" offset="0.664062"/><stop stop-opacity="1" stop-color="rgb(84.552002%, 49.21875%, 63.543701%)" offset="0.671875"/><stop stop-opacity="1" stop-color="rgb(84.443665%, 48.861694%, 63.883972%)" offset="0.679687"/><stop stop-opacity="1" stop-color="rgb(84.336853%, 48.506165%, 64.224243%)" offset="0.6875"/><stop stop-opacity="1" stop-color="rgb(84.230042%, 48.150635%, 64.564514%)" offset="0.695312"/><stop stop-opacity="1" stop-color="rgb(84.12323%, 47.795105%, 64.904785%)" offset="0.703125"/><stop stop-opacity="1" stop-color="rgb(84.016418%, 47.439575%, 65.245056%)" offset="0.710938"/><stop stop-opacity="1" stop-color="rgb(83.908081%, 47.084045%, 65.583801%)" offset="0.71875"/><stop stop-opacity="1" stop-color="rgb(83.80127%, 46.72699%, 65.924072%)" offset="0.726562"/><stop stop-opacity="1" stop-color="rgb(83.694458%, 46.37146%, 66.264343%)" offset="0.734375"/><stop stop-opacity="1" stop-color="rgb(83.587646%, 46.01593%, 66.604614%)" offset="0.742187"/><stop stop-opacity="1" stop-color="rgb(83.480835%, 45.6604%, 66.944885%)" offset="0.75"/><stop stop-opacity="1" stop-color="rgb(83.372498%, 45.304871%, 67.285156%)" offset="0.757812"/><stop stop-opacity="1" stop-color="rgb(83.265686%, 44.949341%, 67.625427%)" offset="0.765625"/><stop stop-opacity="1" stop-color="rgb(83.158875%, 44.593811%, 67.965698%)" offset="0.773437"/><stop stop-opacity="1" stop-color="rgb(83.052063%, 44.236755%, 68.305969%)" offset="0.78125"/><stop stop-opacity="1" stop-color="rgb(82.945251%, 43.881226%, 68.644714%)" offset="0.789062"/><stop stop-opacity="1" stop-color="rgb(82.836914%, 43.525696%, 68.984985%)" offset="0.796875"/><stop stop-opacity="1" stop-color="rgb(82.730103%, 43.170166%, 69.325256%)" offset="0.804687"/><stop stop-opacity="1" stop-color="rgb(82.623291%, 42.814636%, 69.665527%)" offset="0.8125"/><stop stop-opacity="1" stop-color="rgb(82.516479%, 42.459106%, 70.005798%)" offset="0.820312"/><stop stop-opacity="1" stop-color="rgb(82.409668%, 42.103577%, 70.346069%)" offset="0.828125"/><stop stop-opacity="1" stop-color="rgb(82.301331%, 41.746521%, 70.68634%)" offset="0.835937"/><stop stop-opacity="1" stop-color="rgb(82.194519%, 41.390991%, 71.026611%)" offset="0.84375"/><stop stop-opacity="1" stop-color="rgb(82.087708%, 41.035461%, 71.366882%)" offset="0.851562"/><stop stop-opacity="1" stop-color="rgb(81.980896%, 40.679932%, 71.707153%)" offset="0.859375"/><stop stop-opacity="1" stop-color="rgb(81.874084%, 40.324402%, 72.045898%)" offset="0.867187"/><stop stop-opacity="1" stop-color="rgb(81.765747%, 39.968872%, 72.386169%)" offset="0.875"/><stop stop-opacity="1" stop-color="rgb(81.658936%, 39.613342%, 72.72644%)" offset="0.882812"/><stop stop-opacity="1" stop-color="rgb(81.552124%, 39.256287%, 73.066711%)" offset="0.890625"/><stop stop-opacity="1" stop-color="rgb(81.445312%, 38.900757%, 73.406982%)" offset="0.898437"/><stop stop-opacity="1" stop-color="rgb(81.338501%, 38.545227%, 73.747253%)" offset="0.90625"/><stop stop-opacity="1" stop-color="rgb(81.230164%, 38.189697%, 74.087524%)" offset="0.914062"/><stop stop-opacity="1" stop-color="rgb(81.123352%, 37.834167%, 74.427795%)" offset="0.921875"/><stop stop-opacity="1" stop-color="rgb(81.016541%, 37.478638%, 74.768066%)" offset="0.929687"/><stop stop-opacity="1" stop-color="rgb(80.909729%, 37.123108%, 75.108337%)" offset="0.9375"/><stop stop-opacity="1" stop-color="rgb(80.802917%, 36.766052%, 75.447083%)" offset="0.945312"/><stop stop-opacity="1" stop-color="rgb(80.69458%, 36.410522%, 75.787354%)" offset="0.953125"/><stop stop-opacity="1" stop-color="rgb(80.587769%, 36.054993%, 76.127625%)" offset="0.960937"/><stop stop-opacity="1" stop-color="rgb(80.480957%, 35.699463%, 76.467896%)" offset="0.96875"/><stop stop-opacity="1" stop-color="rgb(80.374146%, 35.343933%, 76.808167%)" offset="0.976562"/><stop stop-opacity="1" stop-color="rgb(80.267334%, 34.988403%, 77.148438%)" offset="0.984375"/><stop stop-opacity="1" stop-color="rgb(80.160522%, 34.632874%, 77.488708%)" offset="0.992187"/><stop stop-opacity="1" stop-color="rgb(80.052185%, 34.275818%, 77.828979%)" offset="1"/></linearGradient><clipPath id="id4"><path d="M 52 304 L 390 304 L 390 582 L 52 582 Z M 52 304 " clip-rule="nonzero"/></clipPath><clipPath id="id5"><path d="M 41.621094 308.039062 L 348.101562 238.585938 L 421.03125 560.425781 L 114.554688 629.878906 Z M 41.621094 308.039062 " clip-rule="nonzero"/></clipPath><clipPath id="id6"><path d="M 347.90625 238.628906 L 41.425781 308.082031 L 114.359375 629.921875 L 420.839844 560.472656 Z M 347.90625 238.628906 " clip-rule="nonzero"/></clipPath><clipPath id="id7"><path d="M 347.90625 238.628906 L 41.425781 308.082031 L 114.359375 629.921875 L 420.839844 560.472656 Z M 347.90625 238.628906 " clip-rule="nonzero"/></clipPath><clipPath id="id8"><path d="M 230.773438 369.179688 C 221.808594 365.378906 213.269531 359.269531 204.375 352.902344 C 194.09375 345.542969 183.460938 337.929688 171.503906 333.597656 C 155.75 327.886719 135.023438 325.152344 116.742188 322.742188 C 103.777344 321.035156 92.582031 319.558594 86.066406 317.386719 C 70.816406 312.308594 62.773438 304.800781 62.695312 304.722656 C 61.644531 303.734375 59.992188 303.769531 59 304.820312 C 58.003906 305.867188 58.042969 307.515625 59.085938 308.515625 C 59.441406 308.851562 67.96875 316.878906 84.414062 322.351562 C 91.40625 324.679688 102.828125 326.1875 116.058594 327.929688 C 134.078125 330.304688 154.5 333 169.722656 338.519531 C 181.003906 342.605469 191.332031 350.003906 201.328125 357.15625 C 213.609375 365.949219 226.308594 375.039062 240.542969 377.59375 C 241.710938 377.800781 242.871094 377.199219 243.371094 376.128906 C 243.875 375.054688 243.59375 373.773438 242.679688 373.011719 C 232.214844 364.230469 225.457031 356.085938 222.210938 348.304688 C 230.34375 353.578125 245.988281 363.148438 264.839844 371.75 C 298.023438 386.898438 332 403.910156 355.691406 425.664062 C 384.253906 451.890625 391.484375 479.203125 377.792969 509.164062 C 354.675781 559.75 289.53125 548.71875 258.3125 535.816406 C 244.699219 530.191406 231.484375 530.777344 224.871094 531.613281 C 226.433594 529.023438 229.558594 526.992188 234.316406 525.441406 C 236.570312 524.707031 238.175781 522.800781 238.507812 520.457031 C 238.824219 518.195312 237.851562 515.996094 235.964844 514.722656 C 225.265625 507.496094 210.855469 505.121094 196.917969 502.828125 C 187.246094 501.234375 178.113281 499.730469 170.394531 496.746094 C 157.351562 491.695312 144.375 479.03125 136.5625 470.351562 C 141.851562 472.152344 147.300781 473.09375 152.851562 473.175781 C 156.28125 473.226562 159.15625 471.125 160.1875 467.824219 C 161.214844 464.53125 159.992188 461.035156 157.152344 459.132812 C 151.054688 455.050781 143.972656 452.101562 137.128906 449.25 C 130.710938 446.582031 124.652344 444.058594 119.40625 440.707031 C 111.675781 435.769531 105.988281 429.589844 100.964844 424.136719 C 96.378906 419.15625 92.417969 414.855469 87.71875 412.167969 C 77.726562 406.449219 67.984375 406.949219 67.574219 406.972656 C 66.132812 407.058594 65.03125 408.292969 65.117188 409.738281 C 65.203125 411.179688 66.4375 412.277344 67.875 412.199219 C 67.960938 412.191406 76.53125 411.796875 85.125 416.710938 C 89.117188 418.996094 92.824219 423.023438 97.117188 427.683594 C 102.351562 433.375 108.285156 439.816406 116.589844 445.121094 C 122.21875 448.71875 128.777344 451.449219 135.117188 454.089844 C 141.734375 456.839844 148.570312 459.6875 154.242188 463.484375 C 155.351562 464.230469 155.460938 465.414062 155.195312 466.273438 C 155.070312 466.671875 154.53125 467.972656 152.925781 467.949219 C 144.308594 467.824219 136.285156 465.507812 128.402344 460.863281 C 127.328125 460.230469 125.957031 460.445312 125.125 461.375 C 124.296875 462.304688 124.238281 463.695312 124.984375 464.691406 C 125.851562 465.847656 146.507812 493.117188 168.507812 501.636719 C 176.726562 504.816406 186.558594 506.4375 196.070312 508.003906 C 209.449219 510.210938 223.289062 512.488281 233.039062 519.070312 C 233.125 519.128906 233.386719 519.308594 233.328125 519.738281 C 233.308594 519.871094 233.210938 520.3125 232.703125 520.476562 C 223.875 523.347656 219.105469 528.121094 218.519531 534.675781 C 218.445312 535.515625 218.777344 536.335938 219.414062 536.886719 C 220.046875 537.4375 220.953125 537.742188 221.726562 537.457031 C 221.878906 537.476562 239.007812 533.511719 256.316406 540.667969 C 280.984375 550.863281 309.519531 555.226562 333.945312 549.691406 C 354.789062 544.96875 372.644531 533.035156 382.550781 511.351562 C 397.097656 479.5 389.253906 449.375 359.226562 421.808594 C 335 399.5625 300.585938 382.316406 267.011719 366.992188 C 239.820312 354.578125 219.425781 340.148438 219.222656 340.003906 C 218.359375 339.394531 217.210938 339.355469 216.320312 339.917969 C 215.425781 340.476562 214.953125 341.519531 215.125 342.5625 C 216.546875 351.195312 221.691406 359.96875 230.773438 369.179688 Z M 345.839844 363.65625 C 355.617188 370.253906 366.5625 376.007812 378.371094 380.757812 C 379.710938 381.296875 380.363281 382.820312 379.820312 384.160156 C 379.488281 384.988281 378.777344 385.554688 377.96875 385.734375 C 377.46875 385.847656 376.933594 385.816406 376.417969 385.609375 C 364.273438 380.726562 353 374.800781 342.914062 367.996094 C 341.714844 367.1875 341.398438 365.5625 342.207031 364.363281 C 343.011719 363.167969 344.640625 362.851562 345.839844 363.65625 Z M 334.292969 361.753906 C 332.257812 360.179688 330.234375 358.523438 328.273438 356.84375 C 327.175781 355.902344 327.050781 354.246094 327.992188 353.152344 C 328.933594 352.054688 330.582031 351.929688 331.679688 352.871094 C 333.578125 354.5 335.535156 356.09375 337.5 357.621094 C 338.640625 358.503906 338.851562 360.148438 337.964844 361.289062 C 337.574219 361.789062 337.042969 362.109375 336.476562 362.238281 C 335.738281 362.40625 334.9375 362.253906 334.292969 361.753906 Z M 348.972656 391.492188 C 348.589844 392.121094 347.984375 392.535156 347.316406 392.683594 C 346.675781 392.832031 345.984375 392.734375 345.378906 392.367188 C 304.824219 367.625 261.925781 345.59375 217.882812 326.890625 C 216.550781 326.328125 215.929688 324.789062 216.496094 323.460938 C 217.058594 322.128906 218.59375 321.507812 219.925781 322.074219 C 264.203125 340.871094 307.328125 363.019531 348.101562 387.898438 C 349.335938 388.648438 349.722656 390.261719 348.972656 391.492188 Z M 175.363281 304.390625 C 186.097656 308.355469 196.863281 312.546875 207.375 316.84375 C 208.714844 317.390625 209.355469 318.917969 208.808594 320.257812 C 208.476562 321.078125 207.769531 321.640625 206.964844 321.820312 C 206.457031 321.933594 205.914062 321.902344 205.398438 321.691406 C 194.941406 317.414062 184.230469 313.246094 173.554688 309.300781 C 172.199219 308.796875 171.503906 307.292969 172.003906 305.9375 C 172.503906 304.582031 174.007812 303.886719 175.363281 304.390625 Z M 181.019531 327.039062 C 180.644531 327.707031 180.015625 328.144531 179.320312 328.300781 C 178.710938 328.441406 178.046875 328.359375 177.457031 328.027344 C 164.734375 320.820312 150.632812 315 135.535156 310.714844 C 134.148438 310.320312 133.339844 308.875 133.734375 307.484375 C 134.128906 306.09375 135.574219 305.285156 136.964844 305.683594 C 152.457031 310.078125 166.949219 316.0625 180.035156 323.472656 C 181.289062 324.183594 181.730469 325.78125 181.019531 327.039062 Z M 290.691406 556.957031 C 304.210938 565.445312 317.539062 571.851562 330.308594 575.996094 C 331.683594 576.4375 332.433594 577.917969 331.992188 579.292969 C 331.695312 580.203125 330.949219 580.839844 330.078125 581.039062 C 329.636719 581.136719 329.160156 581.125 328.695312 580.972656 C 315.519531 576.695312 301.796875 570.105469 287.914062 561.390625 C 286.6875 560.621094 286.320312 559.007812 287.085938 557.78125 C 287.851562 556.5625 289.464844 556.191406 290.691406 556.957031 Z M 106.9375 482.964844 C 109.902344 484.675781 112.875 486.371094 115.855469 488.0625 C 117.109375 488.78125 117.550781 490.375 116.835938 491.632812 C 116.457031 492.296875 115.828125 492.734375 115.136719 492.894531 C 114.527344 493.03125 113.859375 492.953125 113.265625 492.617188 C 110.285156 490.917969 107.304688 489.214844 104.328125 487.503906 C 103.078125 486.785156 102.644531 485.183594 103.363281 483.929688 C 104.085938 482.675781 105.683594 482.242188 106.9375 482.964844 Z M 122.441406 494.808594 C 123.148438 493.542969 124.742188 493.097656 126.003906 493.804688 C 177.292969 522.644531 229.484375 549.328125 281.125 573.109375 C 282.4375 573.710938 283.011719 575.269531 282.410156 576.578125 C 282.054688 577.351562 281.375 577.867188 280.609375 578.039062 C 280.070312 578.160156 279.484375 578.113281 278.941406 577.863281 C 227.167969 554.023438 174.851562 527.277344 123.4375 498.371094 C 122.179688 497.660156 121.734375 496.066406 122.441406 494.808594 Z M 152.523438 525.1875 C 164.542969 534.015625 177.5625 541.636719 191.230469 547.851562 C 192.542969 548.453125 193.125 550 192.527344 551.316406 C 192.175781 552.09375 191.492188 552.613281 190.722656 552.785156 C 190.1875 552.910156 189.605469 552.863281 189.0625 552.617188 C 175.070312 546.253906 161.738281 538.445312 149.429688 529.40625 C 148.265625 528.550781 148.015625 526.914062 148.871094 525.746094 C 149.722656 524.582031 151.359375 524.332031 152.523438 525.1875 Z M 199.894531 460.503906 C 194.859375 460.921875 189.824219 462.316406 184.722656 464.691406 C 183.773438 465.128906 183.179688 466.09375 183.210938 467.140625 C 183.238281 468.1875 183.890625 469.113281 184.863281 469.5 C 185.144531 469.613281 213.363281 480.800781 227.371094 488.785156 C 239.734375 495.835938 252.894531 508.65625 255.667969 511.425781 C 255.898438 512.425781 256.261719 513.300781 256.667969 514.003906 C 259.867188 519.554688 292.558594 536.507812 322.515625 534.914062 C 326.367188 534.710938 330.046875 534.207031 333.550781 533.414062 C 350.730469 529.523438 363.636719 518.621094 371.234375 501.425781 C 383.871094 472.816406 369.992188 450.410156 356.121094 436.648438 C 334.625 415.324219 299.78125 401.890625 290.902344 405.933594 C 289.5 406.566406 287.753906 407.761719 286.636719 409.929688 C 281.402344 405.722656 270.707031 397.945312 260.222656 395.367188 C 255.140625 394.117188 248.738281 393.4375 241.320312 392.644531 C 228.566406 391.285156 212.6875 389.585938 198.667969 384.074219 C 177.078125 375.582031 148.558594 352.152344 148.273438 351.917969 C 147.453125 351.246094 146.3125 351.125 145.382812 351.625 C 144.445312 352.121094 143.90625 353.132812 144.007812 354.183594 C 144.496094 359.292969 146.234375 364.34375 149.203125 369.292969 C 137.359375 362.023438 120.640625 352.371094 108.710938 348.023438 C 98.085938 344.148438 84.386719 340.332031 74.765625 337.804688 C 53.980469 332.359375 53.976562 332.355469 52.847656 334.648438 C 52.261719 335.847656 52.679688 337.316406 53.8125 338.027344 C 54.738281 338.707031 80.3125 359.425781 92.964844 372.601562 C 97.113281 376.914062 101.398438 382.605469 105.9375 388.632812 C 115.222656 400.957031 126.777344 416.292969 143.265625 427.820312 C 159.429688 439.125 184.867188 452.746094 199.894531 460.503906 Z M 261.574219 506.207031 C 264.167969 501.308594 262.59375 495.425781 257.914062 492.53125 C 254.148438 490.199219 251.785156 487.152344 250.890625 483.472656 C 249.296875 476.921875 251.894531 470.796875 254.347656 466.808594 C 256.269531 463.695312 256.289062 459.746094 254.410156 456.496094 C 249.511719 448.023438 247.742188 441.09375 249.792969 438.414062 C 251.871094 435.703125 257.890625 435.917969 265.898438 439.007812 C 268.726562 440.101562 271.863281 439.863281 274.519531 438.355469 L 286.855469 431.34375 C 291 428.992188 292.9375 424.183594 291.566406 419.660156 C 290.101562 414.828125 290.605469 411.816406 293.066406 410.703125 C 293.210938 410.636719 293.375 410.585938 293.566406 410.539062 C 299.734375 409.144531 330.664062 418.761719 352.445312 440.367188 C 365.144531 452.96875 377.890625 473.425781 366.453125 499.3125 C 358.375 517.589844 344.324219 527.75 324.679688 529.515625 C 295.8125 532.109375 263.8125 515.238281 261.191406 511.371094 C 260.902344 510.859375 259.96875 509.242188 261.574219 506.207031 Z M 146.265625 423.53125 C 130.457031 412.480469 119.652344 398.140625 110.121094 385.488281 C 105.484375 379.332031 101.101562 373.515625 96.742188 368.976562 C 88.382812 360.269531 74.601562 348.398438 65.558594 340.859375 C 76.820312 343.667969 94.59375 348.445312 106.925781 352.941406 C 126.3125 360.011719 160.300781 382.539062 160.644531 382.765625 C 161.777344 383.519531 163.3125 383.273438 164.152344 382.195312 C 164.996094 381.117188 164.867188 379.574219 163.855469 378.652344 C 157.390625 372.742188 153.019531 366.691406 150.804688 360.597656 C 160.457031 368.046875 180.214844 382.433594 196.757812 388.941406 C 211.4375 394.714844 227.699219 396.453125 240.773438 397.847656 C 248 398.621094 254.242188 399.285156 258.980469 400.453125 C 270.191406 403.207031 282.304688 413.050781 285.554688 415.824219 C 285.636719 417.375 285.941406 419.144531 286.558594 421.175781 C 287.207031 423.308594 286.242188 425.671875 284.273438 426.789062 L 271.933594 433.800781 C 270.652344 434.523438 269.140625 434.644531 267.777344 434.121094 C 261.640625 431.753906 250.597656 428.746094 245.640625 435.230469 C 241.132812 441.117188 245.460938 451.46875 249.886719 459.117188 C 250.800781 460.695312 250.804688 462.589844 249.898438 464.058594 C 246.917969 468.894531 243.789062 476.398438 245.804688 484.707031 C 247.019531 489.699219 250.253906 493.941406 255.160156 496.980469 C 257.46875 498.410156 258.242188 501.324219 256.953125 503.757812 C 256.75 504.140625 256.601562 504.503906 256.445312 504.871094 C 251.085938 499.769531 240.433594 490.207031 229.964844 484.238281 C 219.585938 478.320312 202.210938 470.933594 192.96875 467.132812 C 199.550781 465.183594 206.027344 465.117188 212.640625 466.902344 C 213.945312 467.253906 215.300781 466.558594 215.773438 465.296875 C 216.246094 464.039062 215.6875 462.621094 214.476562 462.027344 C 214.035156 461.8125 169.933594 440.082031 146.265625 423.53125 Z M 346.332031 493.28125 C 343.960938 499.65625 345.570312 505.941406 349.992188 507.589844 C 351.1875 508.035156 352.445312 508.085938 353.695312 507.804688 C 357.074219 507.039062 360.375 503.808594 362.109375 499.152344 C 364.476562 492.777344 362.871094 486.492188 358.449219 484.847656 C 354.027344 483.203125 348.703125 486.898438 346.332031 493.28125 Z M 351.234375 495.101562 C 352.425781 491.898438 354.507812 490.039062 355.867188 489.730469 C 356.15625 489.664062 356.414062 489.671875 356.625 489.746094 C 357.8125 490.1875 358.648438 493.4375 357.207031 497.324219 C 355.757812 501.210938 352.996094 503.113281 351.820312 502.679688 C 350.628906 502.238281 349.789062 498.992188 351.234375 495.101562 Z M 286.859375 498.375 C 288.601562 506.074219 299.382812 512.285156 304.03125 513.933594 C 307.082031 515.019531 312.429688 516.035156 317.191406 514.960938 C 319.851562 514.355469 322.328125 513.101562 324.125 510.832031 C 329.054688 504.621094 326.242188 490.726562 320.546875 485.628906 C 315.480469 481.097656 306.648438 477.945312 300.25 481.035156 C 296.589844 482.800781 284.796875 489.28125 286.859375 498.375 Z M 291.960938 497.21875 C 290.933594 492.6875 298.121094 487.875 302.527344 485.746094 C 302.964844 485.535156 303.445312 485.371094 303.953125 485.253906 C 307.734375 484.398438 313.246094 486.117188 317.054688 489.527344 C 320.808594 492.882812 323.109375 503.691406 320.027344 507.578125 C 317.097656 511.273438 309.734375 510.410156 305.78125 509.003906 C 301.550781 507.5 293.074219 502.128906 291.960938 497.21875 Z M 271.847656 502.65625 C 276.738281 503.859375 280.609375 507.066406 283.359375 512.183594 C 284.042969 513.460938 283.566406 515.042969 282.292969 515.730469 C 282.082031 515.84375 281.859375 515.925781 281.632812 515.980469 C 280.515625 516.230469 279.316406 515.722656 278.75 514.664062 C 276.703125 510.847656 274.035156 508.585938 270.601562 507.738281 C 269.195312 507.394531 268.339844 505.976562 268.683594 504.574219 C 269.027344 503.171875 270.4375 502.308594 271.847656 502.65625 Z M 347.453125 478.339844 C 348.804688 477.867188 350.304688 478.582031 350.785156 479.945312 C 351.261719 481.308594 350.542969 482.800781 349.179688 483.277344 C 344.832031 484.800781 341.554688 487.363281 339.152344 491.113281 C 338.765625 491.714844 338.175781 492.109375 337.53125 492.253906 C 336.871094 492.402344 336.152344 492.296875 335.539062 491.90625 C 334.324219 491.125 333.96875 489.507812 334.75 488.289062 C 337.757812 483.585938 342.035156 480.234375 347.453125 478.339844 Z M 317.296875 466.980469 C 317.183594 467.007812 317.066406 467.027344 316.945312 467.035156 C 315.507812 467.164062 314.238281 466.101562 314.105469 464.660156 C 313.609375 459.117188 311.308594 454.894531 307.066406 451.746094 C 305.90625 450.886719 305.664062 449.25 306.523438 448.085938 C 307.382812 446.925781 309.019531 446.683594 310.179688 447.542969 C 315.613281 451.574219 318.6875 457.175781 319.316406 464.199219 C 319.4375 465.515625 318.554688 466.695312 317.296875 466.980469 Z M 350.84375 449.722656 C 349.683594 446.589844 347.015625 443.96875 343.527344 442.523438 C 340.257812 441.167969 336.71875 441.082031 334.074219 442.304688 C 330.46875 443.960938 328.988281 448.972656 329.136719 452.925781 C 329.308594 457.410156 331.363281 460.808594 334.625 462.023438 C 336.585938 462.75 338.753906 462.75 340.851562 462.273438 C 343.785156 461.609375 346.574219 460.007812 348.425781 458.152344 C 350.996094 455.578125 351.878906 452.503906 350.84375 449.722656 Z M 345.941406 451.542969 C 346.355469 452.65625 345.226562 453.945312 344.726562 454.449219 C 342.503906 456.675781 338.632812 457.917969 336.441406 457.109375 C 335.015625 456.582031 334.433594 454.496094 334.367188 452.722656 C 334.253906 449.800781 335.394531 447.453125 336.261719 447.054688 C 337.589844 446.445312 339.609375 446.5625 341.53125 447.355469 C 343.644531 448.234375 345.292969 449.800781 345.941406 451.542969 Z M 275.875 461.34375 C 276.828125 466.511719 279.460938 468.429688 281.507812 469.125 C 283.222656 469.714844 285.117188 469.773438 286.96875 469.355469 C 288.71875 468.957031 290.429688 468.136719 291.933594 466.925781 C 295.53125 464.023438 297.261719 459.5 296.6875 454.515625 C 295.746094 446.429688 287.425781 440.617188 287.070312 440.371094 C 286.175781 439.753906 284.996094 439.761719 284.105469 440.375 C 283.214844 440.988281 282.792969 442.089844 283.046875 443.144531 C 284.75 450.183594 281.972656 451.507812 280.925781 452.007812 C 277.199219 453.785156 275.171875 457.539062 275.875 461.34375 Z M 281.019531 460.394531 C 280.710938 458.722656 281.882812 457.351562 283.179688 456.730469 C 285.585938 455.582031 288.089844 453.359375 288.679688 449.066406 C 290.03125 450.773438 291.226562 452.867188 291.488281 455.117188 C 291.988281 459.449219 289.925781 461.820312 288.648438 462.851562 C 286.957031 464.210938 284.824219 464.730469 283.195312 464.175781 C 281.890625 463.726562 281.292969 461.875 281.019531 460.394531 Z M 281.019531 460.394531 " clip-rule="nonzero"/></clipPath><linearGradient x1="59.844002" gradientTransform="matrix(-2.551068, 0.578092, 0.578362, 2.55226, 347.406623, 239.012528)" y1="-0.805668" x2="59.844002" gradientUnits="userSpaceOnUse" y2="131.697343" id="id9"><stop stop-opacity="1" stop-color="rgb(93.699646%, 79.598999%, 34.498596%)" offset="0"/><stop stop-opacity="1" stop-color="rgb(93.685913%, 79.5578%, 34.538269%)" offset="0.0078125"/><stop stop-opacity="1" stop-color="rgb(93.617249%, 79.328918%, 34.75647%)" offset="0.015625"/><stop stop-opacity="1" stop-color="rgb(93.505859%, 78.955078%, 35.115051%)" offset="0.0234375"/><stop stop-opacity="1" stop-color="rgb(93.392944%, 78.581238%, 35.472107%)" offset="0.03125"/><stop stop-opacity="1" stop-color="rgb(93.280029%, 78.207397%, 35.829163%)" offset="0.0390625"/><stop stop-opacity="1" stop-color="rgb(93.167114%, 77.833557%, 36.186218%)" offset="0.046875"/><stop stop-opacity="1" stop-color="rgb(93.055725%, 77.459717%, 36.543274%)" offset="0.0546875"/><stop stop-opacity="1" stop-color="rgb(92.94281%, 77.085876%, 36.901855%)" offset="0.0625"/><stop stop-opacity="1" stop-color="rgb(92.829895%, 76.712036%, 37.258911%)" offset="0.0703125"/><stop stop-opacity="1" stop-color="rgb(92.71698%, 76.338196%, 37.615967%)" offset="0.078125"/><stop stop-opacity="1" stop-color="rgb(92.604065%, 75.964355%, 37.973022%)" offset="0.0859375"/><stop stop-opacity="1" stop-color="rgb(92.492676%, 75.590515%, 38.330078%)" offset="0.09375"/><stop stop-opacity="1" stop-color="rgb(92.379761%, 75.216675%, 38.68866%)" offset="0.101562"/><stop stop-opacity="1" stop-color="rgb(92.266846%, 74.842834%, 39.045715%)" offset="0.109375"/><stop stop-opacity="1" stop-color="rgb(92.153931%, 74.468994%, 39.402771%)" offset="0.117188"/><stop stop-opacity="1" stop-color="rgb(92.042542%, 74.095154%, 39.759827%)" offset="0.125"/><stop stop-opacity="1" stop-color="rgb(91.929626%, 73.721313%, 40.118408%)" offset="0.132812"/><stop stop-opacity="1" stop-color="rgb(91.816711%, 73.347473%, 40.475464%)" offset="0.140625"/><stop stop-opacity="1" stop-color="rgb(91.703796%, 72.973633%, 40.83252%)" offset="0.148438"/><stop stop-opacity="1" stop-color="rgb(91.592407%, 72.599792%, 41.189575%)" offset="0.15625"/><stop stop-opacity="1" stop-color="rgb(91.479492%, 72.225952%, 41.546631%)" offset="0.164062"/><stop stop-opacity="1" stop-color="rgb(91.366577%, 71.852112%, 41.905212%)" offset="0.171875"/><stop stop-opacity="1" stop-color="rgb(91.253662%, 71.478271%, 42.262268%)" offset="0.179688"/><stop stop-opacity="1" stop-color="rgb(91.142273%, 71.104431%, 42.619324%)" offset="0.1875"/><stop stop-opacity="1" stop-color="rgb(91.029358%, 70.730591%, 42.976379%)" offset="0.195312"/><stop stop-opacity="1" stop-color="rgb(90.916443%, 70.35675%, 43.334961%)" offset="0.203125"/><stop stop-opacity="1" stop-color="rgb(90.803528%, 69.98291%, 43.692017%)" offset="0.210938"/><stop stop-opacity="1" stop-color="rgb(90.692139%, 69.60907%, 44.049072%)" offset="0.21875"/><stop stop-opacity="1" stop-color="rgb(90.579224%, 69.235229%, 44.406128%)" offset="0.226562"/><stop stop-opacity="1" stop-color="rgb(90.466309%, 68.861389%, 44.763184%)" offset="0.234375"/><stop stop-opacity="1" stop-color="rgb(90.353394%, 68.487549%, 45.121765%)" offset="0.242187"/><stop stop-opacity="1" stop-color="rgb(90.240479%, 68.113708%, 45.478821%)" offset="0.25"/><stop stop-opacity="1" stop-color="rgb(90.129089%, 67.739868%, 45.835876%)" offset="0.257812"/><stop stop-opacity="1" stop-color="rgb(90.016174%, 67.366028%, 46.192932%)" offset="0.265625"/><stop stop-opacity="1" stop-color="rgb(89.903259%, 66.992188%, 46.549988%)" offset="0.273437"/><stop stop-opacity="1" stop-color="rgb(89.790344%, 66.618347%, 46.908569%)" offset="0.28125"/><stop stop-opacity="1" stop-color="rgb(89.678955%, 66.244507%, 47.265625%)" offset="0.289062"/><stop stop-opacity="1" stop-color="rgb(89.56604%, 65.870667%, 47.622681%)" offset="0.296875"/><stop stop-opacity="1" stop-color="rgb(89.453125%, 65.496826%, 47.979736%)" offset="0.304687"/><stop stop-opacity="1" stop-color="rgb(89.34021%, 65.122986%, 48.338318%)" offset="0.3125"/><stop stop-opacity="1" stop-color="rgb(89.228821%, 64.750671%, 48.695374%)" offset="0.320312"/><stop stop-opacity="1" stop-color="rgb(89.115906%, 64.376831%, 49.052429%)" offset="0.328125"/><stop stop-opacity="1" stop-color="rgb(89.002991%, 64.002991%, 49.409485%)" offset="0.335938"/><stop stop-opacity="1" stop-color="rgb(88.890076%, 63.62915%, 49.766541%)" offset="0.34375"/><stop stop-opacity="1" stop-color="rgb(88.778687%, 63.25531%, 50.125122%)" offset="0.351562"/><stop stop-opacity="1" stop-color="rgb(88.665771%, 62.88147%, 50.482178%)" offset="0.359375"/><stop stop-opacity="1" stop-color="rgb(88.552856%, 62.507629%, 50.839233%)" offset="0.367188"/><stop stop-opacity="1" stop-color="rgb(88.439941%, 62.133789%, 51.196289%)" offset="0.375"/><stop stop-opacity="1" stop-color="rgb(88.327026%, 61.759949%, 51.553345%)" offset="0.382812"/><stop stop-opacity="1" stop-color="rgb(88.215637%, 61.386108%, 51.911926%)" offset="0.390625"/><stop stop-opacity="1" stop-color="rgb(88.102722%, 61.012268%, 52.268982%)" offset="0.398438"/><stop stop-opacity="1" stop-color="rgb(87.989807%, 60.638428%, 52.626038%)" offset="0.40625"/><stop stop-opacity="1" stop-color="rgb(87.876892%, 60.264587%, 52.983093%)" offset="0.414062"/><stop stop-opacity="1" stop-color="rgb(87.765503%, 59.890747%, 53.341675%)" offset="0.421875"/><stop stop-opacity="1" stop-color="rgb(87.652588%, 59.516907%, 53.69873%)" offset="0.429688"/><stop stop-opacity="1" stop-color="rgb(87.539673%, 59.143066%, 54.055786%)" offset="0.4375"/><stop stop-opacity="1" stop-color="rgb(87.426758%, 58.769226%, 54.412842%)" offset="0.445312"/><stop stop-opacity="1" stop-color="rgb(87.315369%, 58.395386%, 54.769897%)" offset="0.453125"/><stop stop-opacity="1" stop-color="rgb(87.202454%, 58.021545%, 55.128479%)" offset="0.460937"/><stop stop-opacity="1" stop-color="rgb(87.089539%, 57.647705%, 55.485535%)" offset="0.46875"/><stop stop-opacity="1" stop-color="rgb(86.976624%, 57.273865%, 55.84259%)" offset="0.476562"/><stop stop-opacity="1" stop-color="rgb(86.865234%, 56.900024%, 56.199646%)" offset="0.484375"/><stop stop-opacity="1" stop-color="rgb(86.752319%, 56.526184%, 56.556702%)" offset="0.492187"/><stop stop-opacity="1" stop-color="rgb(86.639404%, 56.152344%, 56.915283%)" offset="0.5"/><stop stop-opacity="1" stop-color="rgb(86.526489%, 55.778503%, 57.272339%)" offset="0.507812"/><stop stop-opacity="1" stop-color="rgb(86.413574%, 55.404663%, 57.629395%)" offset="0.515625"/><stop stop-opacity="1" stop-color="rgb(86.302185%, 55.030823%, 57.98645%)" offset="0.523438"/><stop stop-opacity="1" stop-color="rgb(86.18927%, 54.656982%, 58.345032%)" offset="0.53125"/><stop stop-opacity="1" stop-color="rgb(86.076355%, 54.283142%, 58.702087%)" offset="0.539062"/><stop stop-opacity="1" stop-color="rgb(85.96344%, 53.909302%, 59.059143%)" offset="0.546875"/><stop stop-opacity="1" stop-color="rgb(85.852051%, 53.535461%, 59.416199%)" offset="0.554688"/><stop stop-opacity="1" stop-color="rgb(85.739136%, 53.161621%, 59.773254%)" offset="0.5625"/><stop stop-opacity="1" stop-color="rgb(85.626221%, 52.787781%, 60.131836%)" offset="0.570312"/><stop stop-opacity="1" stop-color="rgb(85.513306%, 52.41394%, 60.488892%)" offset="0.578125"/><stop stop-opacity="1" stop-color="rgb(85.401917%, 52.0401%, 60.845947%)" offset="0.585938"/><stop stop-opacity="1" stop-color="rgb(85.289001%, 51.66626%, 61.203003%)" offset="0.59375"/><stop stop-opacity="1" stop-color="rgb(85.176086%, 51.292419%, 61.560059%)" offset="0.601563"/><stop stop-opacity="1" stop-color="rgb(85.063171%, 50.918579%, 61.91864%)" offset="0.609375"/><stop stop-opacity="1" stop-color="rgb(84.951782%, 50.544739%, 62.275696%)" offset="0.617188"/><stop stop-opacity="1" stop-color="rgb(84.838867%, 50.170898%, 62.632751%)" offset="0.625"/><stop stop-opacity="1" stop-color="rgb(84.725952%, 49.797058%, 62.989807%)" offset="0.632812"/><stop stop-opacity="1" stop-color="rgb(84.613037%, 49.423218%, 63.348389%)" offset="0.640625"/><stop stop-opacity="1" stop-color="rgb(84.500122%, 49.049377%, 63.705444%)" offset="0.648438"/><stop stop-opacity="1" stop-color="rgb(84.388733%, 48.675537%, 64.0625%)" offset="0.65625"/><stop stop-opacity="1" stop-color="rgb(84.275818%, 48.301697%, 64.419556%)" offset="0.664063"/><stop stop-opacity="1" stop-color="rgb(84.162903%, 47.927856%, 64.776611%)" offset="0.671875"/><stop stop-opacity="1" stop-color="rgb(84.049988%, 47.554016%, 65.135193%)" offset="0.679688"/><stop stop-opacity="1" stop-color="rgb(83.938599%, 47.180176%, 65.492249%)" offset="0.6875"/><stop stop-opacity="1" stop-color="rgb(83.825684%, 46.806335%, 65.849304%)" offset="0.695313"/><stop stop-opacity="1" stop-color="rgb(83.712769%, 46.432495%, 66.20636%)" offset="0.703125"/><stop stop-opacity="1" stop-color="rgb(83.599854%, 46.058655%, 66.563416%)" offset="0.710938"/><stop stop-opacity="1" stop-color="rgb(83.488464%, 45.684814%, 66.921997%)" offset="0.71875"/><stop stop-opacity="1" stop-color="rgb(83.375549%, 45.310974%, 67.279053%)" offset="0.726562"/><stop stop-opacity="1" stop-color="rgb(83.262634%, 44.937134%, 67.636108%)" offset="0.734375"/><stop stop-opacity="1" stop-color="rgb(83.149719%, 44.563293%, 67.993164%)" offset="0.742188"/><stop stop-opacity="1" stop-color="rgb(83.03833%, 44.189453%, 68.351746%)" offset="0.75"/><stop stop-opacity="1" stop-color="rgb(82.925415%, 43.815613%, 68.708801%)" offset="0.757812"/><stop stop-opacity="1" stop-color="rgb(82.8125%, 43.441772%, 69.065857%)" offset="0.765625"/><stop stop-opacity="1" stop-color="rgb(82.699585%, 43.067932%, 69.422913%)" offset="0.773438"/><stop stop-opacity="1" stop-color="rgb(82.58667%, 42.694092%, 69.779968%)" offset="0.78125"/><stop stop-opacity="1" stop-color="rgb(82.475281%, 42.321777%, 70.13855%)" offset="0.789062"/><stop stop-opacity="1" stop-color="rgb(82.362366%, 41.947937%, 70.495605%)" offset="0.796875"/><stop stop-opacity="1" stop-color="rgb(82.249451%, 41.574097%, 70.852661%)" offset="0.804688"/><stop stop-opacity="1" stop-color="rgb(82.136536%, 41.200256%, 71.209717%)" offset="0.8125"/><stop stop-opacity="1" stop-color="rgb(82.025146%, 40.826416%, 71.566772%)" offset="0.820313"/><stop stop-opacity="1" stop-color="rgb(81.912231%, 40.452576%, 71.925354%)" offset="0.828125"/><stop stop-opacity="1" stop-color="rgb(81.799316%, 40.078735%, 72.28241%)" offset="0.835938"/><stop stop-opacity="1" stop-color="rgb(81.686401%, 39.704895%, 72.639465%)" offset="0.84375"/><stop stop-opacity="1" stop-color="rgb(81.575012%, 39.331055%, 72.996521%)" offset="0.851562"/><stop stop-opacity="1" stop-color="rgb(81.462097%, 38.957214%, 73.355103%)" offset="0.859375"/><stop stop-opacity="1" stop-color="rgb(81.349182%, 38.583374%, 73.712158%)" offset="0.867188"/><stop stop-opacity="1" stop-color="rgb(81.236267%, 38.209534%, 74.069214%)" offset="0.875"/><stop stop-opacity="1" stop-color="rgb(81.124878%, 37.835693%, 74.42627%)" offset="0.882812"/><stop stop-opacity="1" stop-color="rgb(81.011963%, 37.461853%, 74.783325%)" offset="0.890625"/><stop stop-opacity="1" stop-color="rgb(80.899048%, 37.088013%, 75.141907%)" offset="0.898438"/><stop stop-opacity="1" stop-color="rgb(80.786133%, 36.714172%, 75.498962%)" offset="0.90625"/><stop stop-opacity="1" stop-color="rgb(80.673218%, 36.340332%, 75.856018%)" offset="0.914062"/><stop stop-opacity="1" stop-color="rgb(80.561829%, 35.966492%, 76.213074%)" offset="0.921875"/><stop stop-opacity="1" stop-color="rgb(80.448914%, 35.592651%, 76.570129%)" offset="0.929688"/><stop stop-opacity="1" stop-color="rgb(80.335999%, 35.218811%, 76.928711%)" offset="0.9375"/><stop stop-opacity="1" stop-color="rgb(80.223083%, 34.844971%, 77.285767%)" offset="0.945312"/><stop stop-opacity="1" stop-color="rgb(80.111694%, 34.47113%, 77.642822%)" offset="0.953125"/><stop stop-opacity="1" stop-color="rgb(80.026245%, 34.191895%, 77.909851%)" offset="0.96875"/><stop stop-opacity="1" stop-color="rgb(79.998779%, 34.098816%, 77.999878%)" offset="1"/></linearGradient></defs><g clip-path="url(#id1)"><g clip-path="url(#id2)"><path fill="url(#id3)" d="M 1031.351562 29.96875 L 1031.351562 441.71875 L 1422.828125 441.71875 L 1422.828125 29.96875 Z M 1031.351562 29.96875 " fill-rule="nonzero"/></g></g><g clip-path="url(#id4)"><g clip-path="url(#id5)"><g clip-path="url(#id6)"><g clip-path="url(#id7)"><g clip-path="url(#id8)"><path fill="url(#id9)" d="M 380.257812 229.40625 L 456.890625 567.589844 L 69.101562 655.464844 L -7.53125 317.28125 Z M 380.257812 229.40625 " fill-rule="nonzero"/></g></g></g></g></g></svg>